<svg xmlns="http://www.w3.org/2000/svg" xmlns:xlink="http://www.w3.org/1999/xlink" width="71" height="17" viewBox="0 0 71 17" fill="none"><g transform="translate(0 0)  rotate(0 35.500000000000014 7.999999999999985)"><path fill-rule="evenodd" style="fill:#222222" transform="translate(33.06864300129138 6.1927577747160285)  rotate(0 2.6066947418840525 2.677385345193253)" opacity="1" d="M2.61 5.35C1.17 5.36 0 4.16 0 2.68C0 1.21 1.16 0.01 2.6 0C3.29 -0.01 3.96 0.26 4.46 0.77C4.95 1.27 5.22 1.96 5.21 2.67C5.21 4.15 4.05 5.35 2.61 5.35Z M4.09136 2.42724C4.11136 2.84724 3.97136 3.25724 3.69136 3.55724C3.41136 3.86724 3.03136 4.03724 2.62136 4.04724C1.97136 4.09724 1.36136 3.73724 1.08136 3.12724C0.801357 2.52724 0.911357 1.81724 1.35136 1.32724C1.80136 0.837242 2.48136 0.677242 3.09136 0.917242C3.69136 1.16724 4.09136 1.75724 4.09136 2.42724Z"></path><path fill-rule="evenodd" style="fill:#222222" transform="translate(27.35933644690607 6.192830174506071)  rotate(0 2.606668279328842 2.67734914529826)" opacity="1" d="M2.61 5.35C1.17 5.36 0 4.16 0 2.68C0 1.21 1.16 0.01 2.6 0C3.29 -0.01 3.96 0.26 4.46 0.77C4.95 1.27 5.22 1.96 5.21 2.67C5.21 4.15 4.05 5.35 2.61 5.35Z M4.06537 2.67383C4.08537 3.09383 3.94537 3.50383 3.66537 3.80383C3.38537 4.11383 3.00537 4.28383 2.59537 4.29383C1.94537 4.34383 1.33537 3.98383 1.05537 3.37383C0.775372 2.77383 0.885372 2.06383 1.32537 1.57383C1.77537 1.08383 2.45537 0.923829 3.06537 1.16383C3.66537 1.41383 4.06537 2.00383 4.06537 2.67383Z "></path><path fill-rule="evenodd" style="fill:#222222" transform="translate(19.05208610478593 3.235497470349401)  rotate(0 3.949374974714187 4.157574281397966)" opacity="1" d="M6.89,1.15C6.15,0.4 5.15,-0.02 4.12,0C2.65,-0.03 1.29,0.76 0.55,2.06C-0.18,3.35 -0.18,4.96 0.55,6.26C1.29,7.55 2.65,8.34 4.12,8.31C5.18,8.36 6.2,7.93 6.94,7.15C7.58,6.42 7.93,5.47 7.9,4.49C7.9,4.25 7.88,4.01 7.84,3.78L4.12,3.78L4.12,4.91L6.76,4.91C6.73,5.45 6.51,5.95 6.16,6.34C5.63,6.9 4.88,7.21 4.12,7.17C2.49,7.17 1.18,5.82 1.18,4.15C1.18,2.49 2.49,1.13 4.12,1.13C4.86,1.12 5.58,1.42 6.11,1.94L6.89,1.15Z"></path><path fill-rule="evenodd" style="fill:#222222" transform="translate(46.23602913473712 6.193256785233189)  rotate(0 2.4060136259614975 2.677304867135576)" opacity="1" d="M2.59 4.3C3.11 4.3 3.6 4.02 3.87 3.56L4.76 4.17C4.12 5.15 2.94 5.58 1.84 5.24C0.74 4.89 0 3.85 0 2.67C-0.03 1.98 0.21 1.3 0.68 0.8C1.14 0.29 1.78 0 2.46 0C3.48 0.03 4.37 0.71 4.69 1.71L4.81 2.01L1.33 3.49C1.54 4 2.04 4.32 2.59 4.3Z M2.5035 1.02975C2.9035 1.00975 3.2835 1.22975 3.4635 1.59975L1.1335 2.59975C1.1135 2.19975 1.2435 1.81975 1.5035 1.51975C1.7535 1.22975 2.1135 1.04975 2.5035 1.02975Z"></path><path fill-rule="evenodd" style="fill:#222222" transform="translate(44.54238733005377 3.5192585603122097)  rotate(0 0.5727684150590338 3.9323503307663983)" opacity="1" d="M1.15,7.86L1.15,0L0,0L0,7.86L1.15,7.86Z"></path><path fill-rule="evenodd" style="fill:#222222" transform="translate(38.75683989538004 6.192654082075023)  rotate(0 2.497655398927159 3.8792028165128545)" opacity="1" d="M5 0.16L5 4.97C5 6.95 3.86 7.76 2.52 7.76C1.51 7.77 0.59 7.14 0.21 6.17L1.2 5.75C1.41 6.31 1.93 6.69 2.52 6.7C3.38 6.7 3.91 6.15 3.91 5.13L3.91 4.74L3.87 4.74C3.52 5.15 3.02 5.37 2.5 5.35C1.1 5.29 0 4.11 0 2.68C0 1.24 1.1 0.06 2.5 0C3.02 -0.01 3.52 0.2 3.87 0.6L3.91 0.6L3.91 0.16L5 0.16Z M2.58959 1.05762C3.38959 1.15762 3.98959 1.85762 3.98959 2.67762C3.98959 3.50762 3.38959 4.19762 2.58959 4.29762C1.77959 4.22762 1.14959 3.51762 1.14959 2.67762C1.14959 1.83762 1.77959 1.12762 2.58959 1.05762Z"></path><path fill-rule="evenodd" style="fill:#222222" transform="translate(53.5474094705541 3.515469184403628)  rotate(0 2.628566289452165 3.9342450187206737)" opacity="1" d="M0 7.87L0 0L2.74 0C3.63 -0.05 4.46 0.41 4.92 1.18C5.37 1.96 5.37 2.93 4.92 3.71C4.46 4.48 3.63 4.94 2.74 4.89L1.15 4.89L1.15 7.87L0 7.87Z M3.93554 1.75792C4.18554 2.17792 4.18554 2.70792 3.93554 3.12792C3.69554 3.55792 3.24554 3.80792 2.76554 3.78792L1.14554 3.78792L1.14554 1.09792L2.76554 1.09792C3.24554 1.08792 3.69554 1.33792 3.93554 1.75792Z"></path><path fill-rule="evenodd" style="fill:#222222" transform="translate(61.20474122268024 6.176538901993808)  rotate(0 2.2512555351250843 2.681948129801165)" opacity="1" d="M3.4 2.16L3.4 2.08C3.34 1.46 2.8 1.01 2.2 1.07C1.77 1.03 1.36 1.25 1.15 1.64L0.14 1.21C0.53 0.42 1.33 -0.05 2.18 0C3.49 0 4.5 0.78 4.5 2.18L4.5 5.19L3.4 5.19L3.4 4.58L3.36 4.58C3.05 5.09 2.49 5.39 1.91 5.36C1.43 5.4 0.95 5.23 0.6 4.91C0.24 4.58 0.02 4.12 0 3.63C0 2.47 1.11 1.85 2.21 1.85C2.62 1.85 3.03 1.96 3.4 2.16Z M2.35554 2.80334C2.72554 2.79334 3.08554 2.88334 3.39554 3.06334C3.31554 3.77334 2.73554 4.30334 2.03554 4.31334C1.61554 4.37334 1.21554 4.08334 1.14554 3.64334C1.14554 3.03334 1.79554 2.80334 2.35554 2.80334Z"></path><path fill-rule="evenodd" style="fill:#222222" transform="translate(65.78688854315254 6.350550798463928)  rotate(0 2.606555728423742 3.7089928319788656)" opacity="1" d="M0,0L2.04,4.77L0.88,7.42L2.07,7.42L5.21,0L3.94,0L2.63,3.41L2.59,3.41L1.23,0L0,0Z "></path><path fill-rule="evenodd" style="fill:#222222" transform="translate(59.43436612158871 3.5192585603122097)  rotate(0 0.569705482358185 3.9323503307663983)" opacity="1" d="M1.14,7.86L1.14,0L0,0L0,7.86L1.14,7.86Z "></path><path fill-rule="evenodd" style="fill:#4285F4" transform="translate(0 0.19370313605668343)  rotate(0 3.9976348246607945 7.903148431971643)" opacity="1" d="M0.01,14.71C0,14.9 0.01,15.09 0.04,15.28C0.19,15.88 0.55,15.97 0.96,15.54C3.24,13.19 5.5,10.82 7.78,8.48C7.91,8.4 7.99,8.27 8,8.12C8,7.96 7.92,7.82 7.79,7.75L0.74,0.31C0.61,0.18 0.53,-0.07 0.31,0.02C0.13,0.13 0.02,0.33 0.02,0.55C0,0.74 0,0.93 0,1.13L0,7.84C0,10.13 0,12.42 0.01,14.71Z "></path><path fill-rule="evenodd" style="fill:#34A853" transform="translate(0.9457312583611497 0)  rotate(0 4.833031410463121 3.9515061155797655)" opacity="1" d="M0.02,0.08C2.45,2.65 4.86,5.22 7.28,7.78C7.47,7.99 7.58,7.9 7.73,7.75C8.31,7.15 8.86,6.54 9.46,5.96C9.78,5.66 9.72,5.52 9.37,5.32C6.42,3.62 3.49,1.91 0.54,0.2C0.39,0.07 0.2,0 0,0C0,0.03 0.01,0.06 0.02,0.08Z "></path><path fill-rule="evenodd" style="fill:#EA4335" transform="translate(1.8707369340179412 8.784183912720437)  rotate(0 4.237073445198018 3.3845767385547676)" opacity="1" d="M0.93,6.38C3.34,5 5.76,3.61 8.19,2.25C8.56,2.04 8.55,1.91 8.27,1.64C7.81,1.2 7.37,0.74 6.96,0.25C6.67,-0.08 6.5,-0.08 6.19,0.24C4.16,2.41 2.11,4.55 0,6.77C0.34,6.73 0.66,6.59 0.93,6.38Z "></path><path fill-rule="evenodd" style="fill:#FBBC04" transform="translate(8.838966533107737 5.908959286079607)  rotate(0 2.761204977489204 2.2920420522371225)" opacity="1" d="M2.33,0C2.23,0.02 2.14,0.08 2.08,0.16C1.43,0.84 0.79,1.52 0.13,2.18C0.05,2.23 0,2.32 0,2.42C0,2.52 0.05,2.61 0.13,2.66C0.69,3.24 1.24,3.83 1.79,4.42C1.84,4.5 1.91,4.55 1.99,4.57C2.08,4.6 2.17,4.58 2.24,4.54C3.2,3.97 4.17,3.42 5.14,2.85C5.37,2.72 5.52,2.47 5.52,2.19C5.5,1.89 5.32,1.63 5.04,1.51C4.23,1.04 3.42,0.57 2.61,0.07C2.53,0.01 2.42,-0.01 2.33,0Z "></path></g></svg>