<svg xmlns="http://www.w3.org/2000/svg" xmlns:xlink="http://www.w3.org/1999/xlink" width="37" height="14" viewBox="0 0 37 14" fill="none"><g opacity="1" transform="translate(0.0003662109375 0)  rotate(0 18.165314712524413 7)"><path fill-rule="evenodd" style="fill:#000000" transform="translate(0 0)  rotate(0 6 7)" opacity="1" d="M0.618617 5.17213C-0.681383 7.31213 0.278617 10.4921 1.54862 12.2221C2.16862 13.0721 2.90862 14.0321 3.87862 13.9921C4.80862 13.9621 5.15862 13.4221 6.28862 13.4221C7.41862 13.4221 7.72862 13.9921 8.71862 13.9821C9.71862 13.9621 10.3586 13.1121 10.9786 12.2621C11.6886 11.2721 11.9786 10.3121 11.9986 10.2721C11.9686 10.2621 10.0386 9.55213 10.0186 7.43213C9.99862 5.66213 11.5386 4.81213 11.6086 4.77213C10.7386 3.57213 9.39862 3.40213 8.91862 3.38213C7.76862 3.27213 6.67862 4.02213 6.09862 4.02213C5.50862 4.02213 4.61862 3.40213 3.65862 3.41213C2.40862 3.43213 1.25862 4.11213 0.618617 5.17213Z M8.92912 -1.59903e-09C8.18912 0.03 7.28912 0.47 6.75912 1.06C6.27912 1.59 5.86912 2.42 5.97912 3.22C6.79912 3.29 7.64912 2.83 8.15912 2.23C8.67912 1.64 9.01912 0.82 8.92912 -1.59903e-09Z"></path><path fill-rule="evenodd" style="fill:#000000" transform="translate(17.08 3.23)  rotate(0 9.625314712524414 4.773017883300781)" opacity="1" d="M1.92664e-09 0.87C1.92664e-09 1.1 0.09 1.32 0.26 1.48C0.43 1.65 0.65 1.74 0.88 1.73C1.38 1.73 1.77 1.35 1.77 0.87C1.77 0.38 1.38 -1.25723e-08 0.88 -1.25723e-08C0.39 -1.25723e-08 1.92664e-09 0.38 1.92664e-09 0.87Z M2.60664 4.76604C2.60664 7.71604 4.28664 9.54604 6.98664 9.54604C9.66664 9.54604 11.3566 7.71604 11.3566 4.76604C11.3566 1.85604 9.66664 0.0160357 6.98664 0.0160357C4.28664 0.0160357 2.60664 1.85604 2.60664 4.76604Z M13.6306 6.79604L12.0306 6.79604C12.0906 8.49604 13.4906 9.54604 15.6106 9.54604C17.8406 9.54604 19.2506 8.44604 19.2506 6.69604C19.2506 5.32604 18.4506 4.54604 16.5906 4.12604L15.5206 3.87604C14.3906 3.60604 13.9206 3.24604 13.9206 2.63604C13.9206 1.86604 14.6306 1.35604 15.6706 1.35604C16.7206 1.35604 17.4406 1.87604 17.5206 2.73604L19.1006 2.73604C19.0606 1.11604 17.7206 0.0160357 15.6806 0.0160357C13.6706 0.0160357 12.2506 1.12604 12.2506 2.76604C12.2506 4.07604 13.0606 4.88604 14.7606 5.28604L15.9506 5.57604C17.1106 5.83604 17.5906 6.22604 17.5906 6.88604C17.5906 7.65604 16.8106 8.20604 15.7006 8.20604C14.5706 8.20604 13.7206 7.64604 13.6306 6.79604Z M4.29092 4.76916C4.29092 6.82916 5.33092 8.13916 6.98092 8.13916C8.62092 8.13916 9.67093 6.82916 9.67093 4.76916C9.67093 2.72916 8.62092 1.41916 6.98092 1.41916C5.33092 1.41916 4.29092 2.72916 4.29092 4.76916Z M0.0882246 9.39382L1.68822 9.39382L1.68822 2.61382L0.0882246 2.61382L0.0882246 2.61382L0.0882246 9.39382Z "></path></g></svg>